<?xml version="1.0" encoding="UTF-8" standalone="no"?>
<!DOCTYPE svg PUBLIC "-//W3C//DTD SVG 1.1//EN" "http://www.w3.org/Graphics/SVG/1.1/DTD/svg11.dtd">
<svg version="1.1" xmlns="http://www.w3.org/2000/svg" xmlns:xlink="http://www.w3.org/1999/xlink" preserveAspectRatio="xMidYMid meet" viewBox="0 0 118 84" width="118" height="84"><defs><path d="M97.44 28.92C89.78 17.49 83.05 13.64 81.16 11.83C79.08 9.83 77.49 7.57 76.48 6.48C74.24 4.02 71.34 1 66.56 1C61.95 1 58.9 4 57.91 6.6C57.62 7.34 57.4 8.25 57.19 8.57C56.74 9.32 54.7 12.8 53.86 14.18C54.11 14.18 55.38 14.18 57.67 14.18C56.55 16.28 55.94 17.44 55.81 17.68C57.97 17.2 59.52 16.85 61.58 16.85C63.41 16.85 64.73 17.29 65.3 18.44C66.37 20.58 66.37 27.06 68.19 31.95C69.87 36.53 73.99 41.02 78.63 44.46C78.69 44.5 78.75 44.52 78.83 44.52C79.06 44.52 79.2 44.36 79.2 44.19C79.2 44.07 79.16 43.99 79.06 43.89C75.19 40.02 72.04 35.73 70.35 31.04C68.68 26.47 68.95 20.04 67.49 17.18C66.52 15.29 64.46 14.79 62.56 14.79C61.04 14.79 59.62 15.1 58.96 15.25C59.07 15.06 59.63 14.12 60.63 12.42C58.94 12.42 58 12.42 57.81 12.42C58.41 11.38 59.02 10.41 59.33 9.83C59.6 9.34 59.7 8.72 60.03 7.88C61.1 5.18 63.47 3.47 66.56 3.47C70.43 3.47 72.69 5.96 74.94 8.45C75.97 9.6 77.66 12.01 79.61 13.8C80.95 15.04 83.5 16.42 87.44 20.48C89.7 22.82 92.34 25.87 95.12 29.95C105.06 44.5 111.59 57.33 115.23 67.34C115.23 67.34 115.18 67.38 115.17 67.38C104.73 60.3 95.69 53.6 88.41 45.35C83.24 39.48 78.75 32.69 74.84 24.02C74.57 23.44 74.34 22.91 74.1 22.35C73.99 22.12 73.89 22.06 73.72 22.06C73.52 22.06 73.37 22.21 73.37 22.41C73.37 22.64 73.48 23.13 73.7 24.12C75.78 33.1 81.55 41.15 87.71 47.84C93.84 54.49 100.78 60.21 106.48 64.37C106.93 65.65 110.48 75.82 110.93 77.1C111.03 77.41 111.16 77.74 111.16 78.04C111.16 78.27 111.09 78.46 110.95 78.58C110.83 78.7 110.66 78.77 110.29 78.77C110.16 78.77 109.09 78.77 108.95 78.77C108.38 78.77 108.15 78.68 107.94 78.52C107.74 78.35 107.6 78.11 107.49 77.82C107.1 76.62 104.75 69.93 104.3 68.57C104.22 68.33 104.07 68.24 103.91 68.24C103.7 68.24 103.56 68.41 103.56 68.59C103.56 68.76 103.62 68.94 103.72 69.52C104.32 72.57 105.02 75.99 105.31 77.28C105.43 77.88 105.58 78.44 105.58 78.85C105.58 79.22 105.49 79.42 105.19 79.73C105.05 79.87 103.94 80.99 103.81 81.13C103.48 81.46 103.29 81.54 103.02 81.54C102.69 81.54 102.43 81.32 102.3 80.74C100.74 73.43 98.37 64.37 97.75 61.86C97.61 61.31 97.5 61 97.18 61C96.89 61 96.79 61.2 96.79 61.45C96.79 61.63 96.83 61.86 96.85 62.03C97.22 64.62 98.72 74.07 100.35 82.7C100.64 84.18 101.19 85 102.47 85C103.04 85 103.6 84.78 104.11 84.28C104.96 83.44 105.2 83.21 106.22 82.22C106.93 81.52 107.43 81.24 108.66 81.24C108.97 81.24 111.41 81.24 111.71 81.24C112.43 81.24 112.82 81.05 113.17 80.72C113.5 80.41 113.71 79.98 113.71 79.36C113.71 78.72 113.54 78.21 113.32 77.57C112.54 75.47 110.02 68.37 109.28 66.37C109.29 66.37 109.34 66.33 109.34 66.33C111.92 68.29 115.66 70.78 117.31 70.78C117.83 70.78 118.14 70.55 118.14 69.75C118.14 65.96 111.84 50.37 97.44 28.92" id="a373tcSK6o"></path><path d="M26.76 4.99C27.19 4.04 28.14 3.39 29.27 3.39C30.82 3.39 32.05 4.58 32.05 6.17C32.05 7.09 31.62 7.9 30.94 8.39C31.08 8.93 31.19 9.4 31.19 9.85C31.19 11.58 30.16 12.8 28.26 13.43C28.02 14.48 27.56 15.43 26.82 16.13C25.59 17.32 24.33 17.32 24.33 17.82C24.33 18.09 24.52 18.25 25.03 18.25C27.32 18.25 29.56 16.98 29.83 14.85C32.01 14.11 33.33 11.91 33.33 10.16C33.33 9.71 33.29 9.32 33.1 8.95C33.7 8.37 34.4 7.38 34.4 5.92C34.4 4.64 33.84 3.35 32.85 2.4C31.99 1.55 30.77 1 29.35 1C27.29 1 25.96 2.11 25.2 3.2C22.95 3.2 20.05 5.69 20.05 9.26C20.02 9.26 19.77 9.26 19.74 9.26C19.53 8.02 18.26 7.19 17.18 7.13C16.32 4.54 14.36 2.32 11.15 2.32C10.78 2.32 10.33 2.34 9.94 2.4C8.99 1.53 7.94 1 6.48 1C3.68 1 1.39 3.24 1.39 6.08C1.39 7.85 2.2 9.07 3.72 10.14C3.72 10.14 3.7 10.37 3.7 10.47C3.7 12.73 6.17 16.28 9.83 16.28C9.83 16.85 10.56 17.64 11.36 17.78C11.36 17.8 11.36 17.89 11.36 18.07C11.17 18.07 11.07 18.07 11.05 18.07C6.01 18.07 3.86 20.5 3.86 22.12C2.36 22.74 1.39 24.41 1.39 25.95C1.39 29.02 3.64 31.2 6.6 31.2C7.59 31.2 8.6 30.81 9.3 30.28C9.81 30.46 10.47 30.56 11.15 30.56C12.57 30.56 14.16 30.07 15.27 28.44C15.44 28.46 15.58 28.46 15.74 28.46C17.56 28.46 19.12 27.27 19.94 25.7C20.15 25.31 20.23 25.01 20.23 24.78C20.23 24.55 20.13 24.37 19.9 24.37C19.62 24.37 19.57 24.64 19.06 25.11C17.91 26.16 16.13 26.55 14.32 26.55C13.44 27.85 12.35 28.53 11.09 28.53C10.16 28.53 9.44 28.28 8.7 27.78C8.1 28.44 7.36 28.71 6.64 28.71C5.02 28.71 3.86 27.58 3.86 25.93C3.86 24.78 4.6 23.75 5.63 23.36C5.82 21.32 8 19.94 10.72 19.94C11.07 19.94 11.42 19.96 11.79 20C12.2 19.34 13.19 18.64 14.59 18.46C14.88 18.42 15.1 18.4 15.27 18.31C15.44 18.23 15.52 18.07 15.52 17.88C15.52 17.72 15.45 17.57 15.29 17.47C15.15 17.39 14.9 17.35 14.61 17.28C13.31 17.04 11.77 16.23 10.99 14.28C7.88 14.28 5.59 11.79 5.59 8.99C5.59 8.97 5.59 8.82 5.59 8.8C4.56 8.39 3.86 7.4 3.86 6.23C3.86 4.68 5.08 3.45 6.62 3.45C7.55 3.45 8.35 3.9 8.87 4.58C9.3 4.46 9.79 4.42 10.27 4.42C12.57 4.42 15.04 5.88 15.52 8.72C18.48 8.99 19.18 11.5 19.37 12.55C19.47 13.08 19.55 13.54 19.9 13.54C20.27 13.54 20.36 13.12 20.48 12.57C20.71 11.52 21.1 10.68 21.88 10.02C21.88 7.32 23.9 4.99 26.76 4.99" id="b3uwhAf9rW"></path><path d="M32.75 21.13C31.78 22.51 31.08 23.19 28.88 25.79C25.98 29.23 24.45 32.01 21.92 38.18C22.33 38.14 22.93 38.1 23.59 38.1C23.92 38.1 24.18 38.1 24.62 38.12C24.65 38.05 24.9 37.53 24.93 37.46C26.35 34.41 28.26 30.3 30.94 27.13C31.03 27.02 31.77 26.14 31.87 26.03C34.62 22.8 36.33 20.89 37.4 16.48C37.78 14.92 38.08 13.52 39.13 12.51C40.08 11.6 41.28 11.21 42.49 11.21C43.52 11.21 44.28 11.46 45.39 11.93C46.4 12.36 46.77 12.45 47.84 12.45C48.21 12.45 48.48 12.43 48.73 12.4C48.63 12.53 48.15 13.18 47.29 14.34C48.46 15.17 49.11 15.63 49.24 15.72C46.79 16.44 45.5 18.81 45.06 19.9C44.98 20.13 44.94 20.27 44.94 20.41C44.94 20.58 45.02 20.74 45.27 20.74C45.54 20.74 45.74 20.54 46.09 20.13C47.29 18.68 48.24 17.7 52.64 16.32C52.43 16.16 51.4 15.38 49.53 13.97L51.88 10.53C50.56 10.53 49.82 10.53 49.68 10.53C48.28 10.53 47.35 10.51 46.13 9.96C44.49 9.19 43.64 8.86 42.18 8.86C40.39 8.86 38.76 9.5 37.43 10.74C35.88 12.16 35.41 14.05 34.85 16.13C34.42 17.74 33.9 19.51 32.75 21.13" id="ak1gX2sk0"></path><path d="M37.49 35.16C36.31 36.74 34.71 38.82 33.47 41.02C33.86 41.21 35.16 41.91 35.61 42.16C37.03 40.01 39.01 37.38 40.31 35.38C41.48 33.57 41.96 32.79 42.04 30.36C42.06 29.95 42.06 29.55 42.1 29.16C42.2 27.91 42.53 26.63 43.72 25.46C44.61 24.57 45.89 24.12 47.16 24.12C48.4 24.12 49.12 24.47 50.19 24.47C50.95 24.47 51.51 24.28 52 24.1C52.03 24.09 52.16 24.04 52.39 23.96L51.45 26.22C52.78 26.76 53.52 27.07 53.67 27.13C52.25 28.01 49.14 31.82 49.14 36.33C49.14 37.96 49.39 39.46 49.74 40.8C49.78 40.94 49.86 41.09 50.09 41.09C50.29 41.09 50.44 40.96 50.46 40.74C50.46 40.69 50.48 40.31 50.48 40.26C50.54 38.88 50.64 36.7 51.2 34.74C52.13 31.45 54.62 28.36 57.11 26.88C56.87 26.78 55.69 26.26 53.57 25.34L55.09 21.61C54.09 21.82 53.53 21.94 53.42 21.96C52.42 22.16 51.67 22.35 50.79 22.35C50.21 22.35 49.55 22.27 48.77 22.08C48.17 21.94 47.53 21.81 46.63 21.81C45 21.81 43.25 22.43 42.06 23.58C39.87 25.66 39.75 27.91 39.61 29.91C39.42 32.56 38.93 33.22 37.49 35.16" id="b9fOuJZcx"></path><path d="M90.32 36.41C90.17 36.23 90.05 36.14 89.89 36.14C89.64 36.14 89.52 36.31 89.52 36.49C89.52 36.78 89.72 37.13 90.24 38C91.8 40.65 93.74 43.33 96.13 45.84C98.7 48.58 101.73 51.13 104.96 53.42C105.06 53.49 105.87 54.05 105.97 54.12C106.11 54.22 106.22 54.28 106.34 54.28C106.54 54.28 106.69 54.08 106.69 53.91C106.69 53.81 106.65 53.71 106.52 53.6C103.52 50.87 100.28 47.53 97.26 44.32C94.89 41.79 92.46 39.11 90.32 36.41" id="cqBBBJ0uJ"></path><path d="M24.06 27.08C24.37 26.57 25.3 25.32 25.67 24.92C24.08 21.71 21.49 18.64 20.36 17.43C20.26 17.52 19.5 18.26 19.41 18.36C20.5 19.94 22.33 23.01 24.06 27.08" id="f1t2YkIjTW"></path><path d="M8.97 8.49C8.78 8.33 8.74 8.22 8.74 8.1C8.74 7.96 8.85 7.79 9.07 7.79C9.15 7.79 9.24 7.81 9.34 7.86C10.86 8.47 12.16 9.19 13.32 10.08C14.28 10.82 15.23 11.73 16.15 12.82C16.07 12.92 15.38 13.71 15.29 13.8C14.22 12.92 10.76 10.02 8.97 8.49" id="g63hGnQpt"></path><path d="M23.57 15.39C22.9 14.98 22.53 14.76 22.46 14.71C23.18 13 24.06 11.44 25.11 10.26C25.85 9.42 26.55 8.74 27.34 8.06C27.52 7.92 27.62 7.79 27.81 7.79C28.02 7.79 28.16 7.96 28.16 8.12C28.16 8.2 28.12 8.31 28.04 8.43C26.78 10.39 24.33 14.26 23.57 15.39" id="a14CdagRga"></path><path d="M9.07 25.11C8.85 25.11 8.74 24.92 8.74 24.78C8.74 24.64 8.81 24.55 8.95 24.43C11.48 22.45 13.71 21.67 16.77 21.15C16.8 21.24 16.92 21.65 17.14 22.39L9.61 24.94C9.35 25.05 9.17 25.11 9.07 25.11Z" id="eX1uxaAFa"></path><path d="M62.42 8.97C62.42 8.25 62.79 6.95 64.13 6.95C64.58 6.95 65.01 7.05 65.36 7.22C65.86 7.44 66.19 7.77 66.19 8.12C66.19 8.49 65.82 8.86 65.26 9.32C64.69 9.79 63.94 10.22 63.35 10.22C62.63 10.22 62.42 9.54 62.42 8.97" id="a65CCn2qQz"></path><path d="M41.52 14.98C41.52 14.09 42.06 13.12 43.09 13.12C43.54 13.12 44.07 13.31 44.47 13.68C44.69 13.89 44.8 14.11 44.8 14.34C44.8 14.84 44.32 15.31 43.77 15.64C43.33 15.88 42.88 16.05 42.49 16.05C41.85 16.05 41.52 15.66 41.52 14.98" id="bPnvTBT6a"></path><path d="M46.36 27.68C46.36 27.48 46.38 27.23 46.46 26.98C46.63 26.45 46.98 25.93 47.84 25.93C48.24 25.93 48.67 26.03 49.02 26.28C49.33 26.49 49.45 26.76 49.45 27.02C49.45 27.91 47.97 28.94 47.22 28.94C46.69 28.94 46.36 28.42 46.36 27.68" id="b2V1UyoGki"></path><path d="M38.25 53.67C35.47 53.67 34.23 52.35 34.23 50.68C34.23 47.76 39.36 44.9 43.97 43.12C44.09 43.28 45.05 44.51 45.17 44.67C42.33 45.8 36.6 48.23 36.6 50.33C36.6 51.07 37.03 51.61 38.76 51.61C41.77 51.61 45 50.14 47.99 48.68C48.21 48.58 48.48 48.48 48.73 48.48C49.12 48.48 49.37 48.6 49.65 49.01C49.7 49.08 50.1 49.62 50.15 49.69C46.67 51.61 42.33 53.67 38.25 53.67" id="a62MnjNMY"></path><path d="M37.88 56.98C35.1 56.98 32.63 55.79 30.57 52.68C29.7 51.36 29.02 49.71 28.2 48.25C27.21 46.52 26.14 45.6 24.27 45.6C22.56 45.6 20.89 46.3 19.12 47.06C19.13 47.1 19.19 47.41 19.2 47.45C19.35 48.09 19.59 48.54 20.19 48.54C20.46 48.54 20.73 48.42 20.87 48.38C21.86 48.07 22.58 47.8 23.59 47.8C25.13 47.8 25.87 48.71 26.92 50.93C26.96 51.01 27.28 51.67 27.32 51.75C26.24 52.12 23.73 52.31 21.86 52.31C21.8 52.31 21.51 52.31 20.97 52.31C21.06 52.84 21.11 53.13 21.12 53.19C21.18 53.56 21.32 53.87 21.63 54.02C22 54.2 22.54 54.22 23.47 54.22C25.81 54.22 27.52 53.94 28.51 53.69C31.04 57.46 34.52 58.9 37.88 58.9C40.74 58.9 43.64 57.85 46.42 56.32C46.39 56.2 46.22 55.57 45.91 54.45C42.22 56.14 39.54 56.98 37.88 56.98Z" id="clNQPYSw3"></path><path d="M48.71 55.38C48.41 54.24 48.25 53.61 48.21 53.48C52.45 51.2 56.33 49.36 62.5 48.77C62.63 51.13 62.46 54.12 64.21 54.12C65.82 54.12 69.32 49.98 73.35 44.79C73.72 45.14 74.32 45.51 74.86 45.92C74.75 46.06 73.93 47.13 73.83 47.26C69.89 52.33 66.54 56.65 63.78 56.65C61.21 56.65 60.24 53.62 60.2 51.36C56.27 51.75 52.56 53.07 48.71 55.38" id="b3XUodVQb"></path><path d="M103.19 14.05C101.58 14.05 101.13 13.16 101.13 11.91C101.13 9.32 102.76 5.59 103.79 3.47C103.54 3.47 101.54 3.47 101.29 3.47C100 5.98 94.89 14.03 92.13 17.37C92.29 17.54 93.56 18.9 93.72 19.07C95.2 17.43 96.83 14.63 98.6 11.87C98.63 11.87 98.89 11.87 98.93 11.87C98.93 12.01 98.91 12.18 98.91 12.32C98.91 14.65 100.1 16.38 103.04 16.38C104.86 16.38 107.7 15.47 110.37 14.57C112.6 13.8 114.64 13.02 115.64 12.74C115.64 12.49 115.64 10.51 115.64 10.26C114.49 10.61 112.14 11.52 109.71 12.36C107.16 13.25 104.65 14.05 103.19 14.05" id="c5kxeHnq7J"></path><path d="M108.69 21.53C111.16 20.48 115.58 18.71 118.14 17.78C118.14 17.53 118.14 15.52 118.14 15.27C113.01 17.16 104.01 20.89 97.88 24.22C98.04 24.43 99.11 25.93 99.23 26.12C101.83 25.05 104.16 24.35 106.25 24.35C109.2 24.35 111.61 24.35 115.65 23.4C115.65 23.21 115.65 21.69 115.65 21.5C113.38 21.92 110.97 22.41 109.41 22.41C108.48 22.41 108.21 22.29 108.21 21.98C108.21 21.79 108.34 21.67 108.69 21.53" id="bQ0j15en"></path><path d="M54.94 34.99L65.47 34.99L64.69 33.1L55.93 33.1L54.94 34.99Z" id="f2PLA2sPwx"></path><path d="M18.03 44.4C19.14 44.4 20.05 44.03 20.91 43.68C21.73 43.35 22.56 43.02 23.67 43.02C26.31 43.02 29.56 44.3 32.42 45.51C32.59 45.58 32.77 45.61 32.96 45.61C33.41 45.61 33.76 45.41 33.99 44.98C34.02 44.91 34.32 44.37 34.36 44.3C31.21 42.47 26.18 40.51 23.57 40.51C22.37 40.51 21.51 40.82 20.69 41.15C19.76 41.52 18.96 41.91 18.11 41.91C16.03 41.91 10.7 39.85 10.7 37.85C10.7 35.51 19.18 34.6 20.11 34.6C20.19 34.41 20.87 32.88 20.95 32.68C14.8 32.68 7.47 34.85 7.47 37.71C7.47 38.53 7.94 38.94 7.94 39.71C7.94 40.74 7.47 41.44 7.47 42.59C7.47 43.35 7.92 44.32 8.45 45.16C9.03 46.05 9.71 46.62 9.71 47.37C9.71 47.92 9.34 48.58 9.34 49.88C9.34 52.66 10.93 54.35 14.01 57.66C14.08 57.73 14.57 58.25 14.63 58.32C12.08 59.31 7.32 61.37 6.21 61.84C2.36 63.45 1.39 65.4 1.39 68.49C1.39 69.68 1.39 71.04 1.48 72.26C1.55 72.26 2.14 72.26 2.22 72.26C3.76 72.26 3.95 71.33 3.95 70.45C3.95 69.85 3.92 69.17 3.92 68.43C3.95 66.72 4.01 65.2 6.77 63.96C7.88 63.47 13.33 61.24 17.39 59.51C18.58 59 19.7 58.57 20.93 58.57C22.31 58.57 23.9 59.16 25.87 60.34C27.54 61.33 29.29 62.66 30.67 64.21C30.85 64.07 32.25 63 32.42 62.87C30.92 61.1 28.84 59.51 26.76 58.28C24.68 57.04 22.83 56.32 21.26 56.32C20.58 56.32 20.03 56.45 19.55 56.57C19 56.71 18.48 56.88 17.82 56.88C17.06 56.88 16.42 56.69 15.5 55.62C15.15 55.23 12.92 52.7 12.45 51.96C12.22 51.61 11.81 50.91 11.81 50.08C11.81 49.73 11.87 49.32 12.08 48.95C13.99 50.43 16.36 51.34 19.24 51.69C19.2 51.49 18.89 49.93 18.85 49.73C14.71 48.64 10.31 45 10.31 42.65C10.31 42.16 10.43 41.81 10.62 41.37C12.22 42.86 15.99 44.4 18.03 44.4" id="c3FpEumqE0"></path><path d="M55.09 42.73C56.39 42.73 57.91 42.92 59.52 43.12C60.81 43.29 61.99 43.41 63.39 43.41C66.21 43.41 69.05 42.38 70.29 41.85C70.64 42.28 71.23 42.86 71.71 43.27C71.11 43.64 67.32 45.7 63.45 45.7C61.74 45.7 60.11 45.49 58.71 45.31C57.48 45.14 56.14 45 54.84 45C53.42 45 50.56 45.41 48.79 46.25C48.72 46.16 48.34 45.66 47.66 44.77C51.17 43.41 53.65 42.73 55.09 42.73Z" id="g4BabVMsNE"></path><path d="M85.89 52.12C82.8 58.63 78.11 63.36 73.29 66.1C71.01 67.4 68.95 68.24 64.5 68.24C63.54 68.24 55.85 68.24 54.88 68.24C51.45 68.24 49.29 68.7 47.6 69.13C45.78 69.6 44.63 70.07 42.8 70.07C40.08 70.07 37.57 68.74 36.35 67.46C36.51 67.34 37.26 66.75 38.62 65.67C37.94 64.77 37.56 64.27 37.49 64.17C36.83 64.64 28.78 70.59 27.09 71.93C27.08 71.92 27 71.87 26.99 71.87C27.03 71.46 27.03 71.09 27.03 70.71C27.03 66.18 24.93 65.09 21.74 63.82C21.52 63.94 19.79 64.96 19.57 65.09C23.96 66.56 25.05 67.73 25.05 71C25.05 73.6 24.12 74.63 22.78 75.41C21.41 76.21 19.7 76.58 18.19 76.58C17.55 76.58 17.27 76.71 17.04 76.93C16.79 77.18 16.67 77.55 16.67 78.06C16.67 78.11 16.67 78.35 16.67 78.79C16.98 78.79 17.15 78.79 17.19 78.79C19.94 78.79 22.5 78.35 25.3 76.15C26.21 75.44 33.51 69.74 34.42 69.03C35.72 70.51 38.99 72.57 42.86 72.57C45.04 72.57 46.44 72.03 48.46 71.52C50.03 71.13 51.55 70.78 54.88 70.78C55.85 70.78 63.58 70.78 64.54 70.78C69.48 70.78 71.87 69.75 74.51 68.27C80.23 65.05 85.11 59.62 87.87 53.38C87.15 52.93 86.47 52.51 85.89 52.12" id="d389AYfX3"></path><path d="M70.39 59.86C72.88 55.87 75.1 52.33 80.56 49.45C79.98 49.1 79.16 48.56 78.73 48.27C76.61 49.2 74.51 51.05 72.72 52.93C68.6 57.21 68.97 59.68 64.62 61.35C63.53 61.76 62.19 62.21 60.48 62.6C59.48 59.49 56.94 56.4 54.27 56.4C52.41 56.4 50.27 57.37 47.8 58.46C44.9 59.74 42.24 61.2 41.4 61.76C41.51 61.91 42.42 63.13 42.53 63.28C43.4 62.81 45.89 61.57 48.38 60.5C50.54 59.57 52.5 58.81 53.81 58.81C55.93 58.81 57.31 61.22 58.08 63.16C55.3 63.82 50.73 63.98 49.35 63.98C48.71 63.98 48.48 64.08 48.25 64.27C48.05 64.45 47.88 64.78 47.78 65.24C47.77 65.28 47.72 65.52 47.62 65.94C48.51 65.94 49 65.94 49.1 65.94C56.8 65.94 64.07 64.72 68.74 61.88C69.4 62.07 69.98 62.19 70.72 62.19C73.39 62.19 76.15 60.73 77.88 59.39C78.5 58.92 78.64 58.48 78.64 58.01C78.64 57.78 78.62 57.58 78.6 57.37C78.59 57.29 78.53 56.65 78.52 56.57C76.05 58.52 73.99 59.99 71.44 59.99C70.99 59.99 70.66 59.95 70.39 59.86" id="ifHBGqe08"></path></defs><g><g><g><use xlink:href="#a373tcSK6o" opacity="1" fill="#ffffff" fill-opacity="1"></use><g><use xlink:href="#a373tcSK6o" opacity="1" fill-opacity="0" stroke="#000000" stroke-width="1" stroke-opacity="0"></use></g></g><g><use xlink:href="#b3uwhAf9rW" opacity="1" fill="#ffffff" fill-opacity="1"></use><g><use xlink:href="#b3uwhAf9rW" opacity="1" fill-opacity="0" stroke="#000000" stroke-width="1" stroke-opacity="0"></use></g></g><g><use xlink:href="#ak1gX2sk0" opacity="1" fill="#ffffff" fill-opacity="1"></use><g><use xlink:href="#ak1gX2sk0" opacity="1" fill-opacity="0" stroke="#000000" stroke-width="1" stroke-opacity="0"></use></g></g><g><use xlink:href="#b9fOuJZcx" opacity="1" fill="#ffffff" fill-opacity="1"></use><g><use xlink:href="#b9fOuJZcx" opacity="1" fill-opacity="0" stroke="#000000" stroke-width="1" stroke-opacity="0"></use></g></g><g><use xlink:href="#cqBBBJ0uJ" opacity="1" fill="#ffffff" fill-opacity="1"></use><g><use xlink:href="#cqBBBJ0uJ" opacity="1" fill-opacity="0" stroke="#000000" stroke-width="1" stroke-opacity="0"></use></g></g><g><use xlink:href="#f1t2YkIjTW" opacity="1" fill="#ffffff" fill-opacity="1"></use><g><use xlink:href="#f1t2YkIjTW" opacity="1" fill-opacity="0" stroke="#000000" stroke-width="1" stroke-opacity="0"></use></g></g><g><use xlink:href="#g63hGnQpt" opacity="1" fill="#ffffff" fill-opacity="1"></use><g><use xlink:href="#g63hGnQpt" opacity="1" fill-opacity="0" stroke="#000000" stroke-width="1" stroke-opacity="0"></use></g></g><g><use xlink:href="#a14CdagRga" opacity="1" fill="#ffffff" fill-opacity="1"></use><g><use xlink:href="#a14CdagRga" opacity="1" fill-opacity="0" stroke="#000000" stroke-width="1" stroke-opacity="0"></use></g></g><g><use xlink:href="#eX1uxaAFa" opacity="1" fill="#ffffff" fill-opacity="1"></use><g><use xlink:href="#eX1uxaAFa" opacity="1" fill-opacity="0" stroke="#000000" stroke-width="1" stroke-opacity="0"></use></g></g><g><use xlink:href="#a65CCn2qQz" opacity="1" fill="#ffffff" fill-opacity="1"></use><g><use xlink:href="#a65CCn2qQz" opacity="1" fill-opacity="0" stroke="#000000" stroke-width="1" stroke-opacity="0"></use></g></g><g><use xlink:href="#bPnvTBT6a" opacity="1" fill="#ffffff" fill-opacity="1"></use><g><use xlink:href="#bPnvTBT6a" opacity="1" fill-opacity="0" stroke="#000000" stroke-width="1" stroke-opacity="0"></use></g></g><g><use xlink:href="#b2V1UyoGki" opacity="1" fill="#ffffff" fill-opacity="1"></use><g><use xlink:href="#b2V1UyoGki" opacity="1" fill-opacity="0" stroke="#000000" stroke-width="1" stroke-opacity="0"></use></g></g><g><use xlink:href="#a62MnjNMY" opacity="1" fill="#ffffff" fill-opacity="1"></use><g><use xlink:href="#a62MnjNMY" opacity="1" fill-opacity="0" stroke="#000000" stroke-width="1" stroke-opacity="0"></use></g></g><g><use xlink:href="#clNQPYSw3" opacity="1" fill="#ffffff" fill-opacity="1"></use><g><use xlink:href="#clNQPYSw3" opacity="1" fill-opacity="0" stroke="#000000" stroke-width="1" stroke-opacity="0"></use></g></g><g><use xlink:href="#b3XUodVQb" opacity="1" fill="#ffffff" fill-opacity="1"></use><g><use xlink:href="#b3XUodVQb" opacity="1" fill-opacity="0" stroke="#000000" stroke-width="1" stroke-opacity="0"></use></g></g><g><use xlink:href="#c5kxeHnq7J" opacity="1" fill="#ffffff" fill-opacity="1"></use><g><use xlink:href="#c5kxeHnq7J" opacity="1" fill-opacity="0" stroke="#000000" stroke-width="1" stroke-opacity="0"></use></g></g><g><use xlink:href="#bQ0j15en" opacity="1" fill="#ffffff" fill-opacity="1"></use><g><use xlink:href="#bQ0j15en" opacity="1" fill-opacity="0" stroke="#000000" stroke-width="1" stroke-opacity="0"></use></g></g><g><use xlink:href="#f2PLA2sPwx" opacity="1" fill="#ffffff" fill-opacity="1"></use><g><use xlink:href="#f2PLA2sPwx" opacity="1" fill-opacity="0" stroke="#000000" stroke-width="1" stroke-opacity="0"></use></g></g><g><use xlink:href="#c3FpEumqE0" opacity="1" fill="#ffffff" fill-opacity="1"></use><g><use xlink:href="#c3FpEumqE0" opacity="1" fill-opacity="0" stroke="#000000" stroke-width="1" stroke-opacity="0"></use></g></g><g><use xlink:href="#g4BabVMsNE" opacity="1" fill="#ffffff" fill-opacity="1"></use><g><use xlink:href="#g4BabVMsNE" opacity="1" fill-opacity="0" stroke="#000000" stroke-width="1" stroke-opacity="0"></use></g></g><g><use xlink:href="#d389AYfX3" opacity="1" fill="#ffffff" fill-opacity="1"></use><g><use xlink:href="#d389AYfX3" opacity="1" fill-opacity="0" stroke="#000000" stroke-width="1" stroke-opacity="0"></use></g></g><g><use xlink:href="#ifHBGqe08" opacity="1" fill="#ffffff" fill-opacity="1"></use><g><use xlink:href="#ifHBGqe08" opacity="1" fill-opacity="0" stroke="#000000" stroke-width="1" stroke-opacity="0"></use></g></g></g></g></svg>