<?xml version="1.0" encoding="UTF-8" standalone="no"?>
<!DOCTYPE svg PUBLIC "-//W3C//DTD SVG 1.1//EN" "http://www.w3.org/Graphics/SVG/1.1/DTD/svg11.dtd">
<svg version="1.1" xmlns="http://www.w3.org/2000/svg" xmlns:xlink="http://www.w3.org/1999/xlink" preserveAspectRatio="xMidYMid meet" viewBox="0 0 142 151" width="142" height="151"><defs><path d="M127.81 0C122.64 0 116.5 3.82 110.36 11.46C99.7 24.68 88.06 49.35 74.49 78.44C69.32 70.21 56.72 58.17 39.27 57.87C35.07 57.87 30.22 58.75 25.38 60.22C6.63 66.69 0.17 82.55 0.17 93.42C0.17 111.63 15.36 126.62 33.45 126.91C33.78 126.91 33.78 126.91 34.1 126.91C44.76 126.91 52.52 121.62 57.37 116.33C60.92 112.52 63.18 108.7 63.83 106.93C71.26 123.09 79.02 136.31 84.51 142.48C89.36 148.06 94.53 151 100.02 151C100.02 151 100.02 151 100.02 151C104.87 151 109.71 148.36 113.59 142.48C124.25 127.2 131.69 104.29 137.18 82.55C140.41 69.62 142.35 51.41 142.35 35.25C142.35 28.79 142.03 22.91 141.38 17.92C140.41 12.34 138.8 7.93 136.53 4.7C134.27 1.76 131.36 0 127.81 0ZM42.5 120.45C41.53 120.74 40.24 120.74 38.95 120.74C30.22 120.74 19.56 115.16 17.3 104C16.97 102.53 16.97 101.06 16.97 99.59C16.97 91.36 21.5 83.14 32.16 79.91C33.78 79.32 35.72 79.03 37.33 79.03C47.67 79.03 56.4 88.13 62.21 102.53C61.89 103.11 61.57 104 60.92 105.17C58.34 109.58 52.2 118.68 42.5 120.45ZM106.8 107.23C106.48 107.23 106.16 107.23 105.84 107.23C91.62 106.35 81.28 89.01 77.08 82.26C79.66 76.38 84.19 66.69 90.33 58.17C96.46 49.65 104.54 42.01 113.91 40.83C114.88 40.83 115.53 40.54 116.18 40.54C121.67 40.54 125.87 43.18 129.1 47.59C132.01 51.7 133.62 57.29 133.62 62.87C133.95 78.44 130.07 89.31 124.58 96.65C119.08 104 112.62 107.23 106.8 107.23Z" id="g1vLrZZxIY"></path></defs><g><g><g><use xlink:href="#g1vLrZZxIY" opacity="1" fill="#ffffff" fill-opacity="1"></use><g><use xlink:href="#g1vLrZZxIY" opacity="1" fill-opacity="0" stroke="#000000" stroke-width="1" stroke-opacity="0"></use></g></g></g></g></svg>