<?xml version="1.0" encoding="UTF-8" standalone="no"?>
<svg xmlns:svg="http://www.w3.org/2000/svg"
   xmlns="http://www.w3.org/2000/svg"
   version="1.1"
   x="0px"
   y="0px"
   viewBox="0 0 170.10001 51.400003"
   xml:space="preserve"
   width="170.10001"
   height="51.400002">
     <path fill="#008936"
     d="M 42.2,1.6 C 41.5,0.6 40.6,0 39.5,0 37.9,0 36,1.3 34.1,3.9 30.8,8.4 27.2,16.8 23,26.7 21.4,23.9 17.5,19.8 12.1,19.7 10.8,19.7 9.3,20 7.8,20.5 2,22.7 0,28.1 0,31.8 0,38 4.7,43.1 10.3,43.2 c 0.1,0 0.1,0 0.2,0 3.3,0 5.7,-1.8 7.2,-3.6 1.1,-1.3 1.8,-2.6 2,-3.2 2.3,5.5 4.7,10 6.4,12.1 1.5,1.9 3.1,2.9 4.8,2.9 v 0 c 1.5,0 3,-0.9 4.2,-2.9 3.3,-5.2 5.6,-13 7.3,-20.4 C 43.4,23.7 44,17.5 44,12 44,9.8 43.9,7.8 43.7,6.1 43.4,4.2 42.9,2.7 42.2,1.6 Z M 18.8,35.8 c -0.8,1.5 -2.7,4.6 -5.7,5.2 -0.3,0.1 -0.7,0.1 -1.1,0.1 -2.7,0 -6,-1.9 -6.7,-5.7 -0.1,-0.5 -0.1,-1 -0.1,-1.5 0,-2.8 1.4,-5.6 4.7,-6.7 0.5,-0.2 1.1,-0.3 1.6,-0.3 3.2,0 5.9,3.1 7.7,8 -0.1,0.2 -0.2,0.5 -0.4,0.9 z m 19.7,-2.9 c -1.7,2.5 -3.7,3.6 -5.5,3.6 -0.1,0 -0.2,0 -0.3,0 -4.4,-0.3 -7.6,-6.2 -8.9,-8.5 0.8,-2 2.2,-5.3 4.1,-8.2 1.9,-2.9 4.4,-5.5 7.3,-5.9 0.3,0 0.5,-0.1 0.7,-0.1 1.7,0 3,0.9 4,2.4 0.9,1.4 1.4,3.3 1.4,5.2 0.1,5.3 -1.1,9 -2.8,11.5 z m 23.4,-5.2 1.2,0.4 c 0.3,0.1 0.6,0.4 0.6,0.8 0,0.2 -0.1,0.5 -0.2,0.8 l -3.4,8.7 -3.7,-11.6 h -5.2 c -0.1,0.3 0,0.8 0,1 1.2,0.4 1.6,0.3 2.1,1.5 l 4.5,12.7 2.6,-0.8 4.6,-11 c 0.5,-1.2 1,-2.2 1.4,-2.7 0,-0.1 0,-0.6 0,-0.7 h -4.5 c -0.1,0.4 -0.1,0.6 0,0.9 z M 96.7,39.3 96.6,34.1 V 28 c 0,-1 -0.7,-1.5 -1.7,-1.5 -1.3,0 -2.8,0.3 -4.1,0.7 v 1.1 H 93 V 34 l -0.1,4 c -0.8,0.4 -1.9,0.9 -3.4,0.9 -1.8,0 -2,-1.3 -2,-2.8 V 28 c 0,-1 -0.6,-1.5 -1.7,-1.5 -1.2,0 -2.8,0.3 -4.2,0.7 v 1.1 h 2.3 v 8.3 c 0,2.5 0.3,4.9 4.2,4.9 2.1,0 3.6,-1.2 4.9,-2.5 0,1.5 0.8,2.4 2.2,2.4 1.7,0 3,-0.8 4,-1.4 l -0.1,-0.7 z m 17.1,0 -0.1,-5.4 V 19.7 c 0,-1.1 -0.4,-1.3 -1.4,-1.3 -1.2,0 -3.2,0.3 -4.7,0.6 v 1.2 h 2.4 v 6.6 c -0.6,-0.1 -1.3,-0.2 -2.3,-0.2 -4.2,0 -7.5,3.1 -7.5,7.9 0,5.6 2.9,6.9 5.7,6.9 1.8,0 3.1,-1 4,-2 0,1 0.3,2 1.7,2 2,0 3.3,-0.7 4.4,-1.3 l -0.2,-0.9 h -2 z m -3.8,-5.4 -0.1,4.5 c -0.7,0.2 -1.5,0.6 -2.4,0.6 -2,0 -3.4,-1.5 -3.4,-4.8 0,-3.9 1,-5.8 3.7,-5.8 1,0 1.6,0.2 2.2,0.4 z m 14.2,-7.4 c -4.1,0 -7.3,3.9 -7.3,7.8 0,5 2.6,7.2 7,7.2 4.2,0 7.3,-3.9 7.3,-7.8 0.1,-4.9 -2.3,-7.2 -7,-7.2 z m 0.2,13.3 c -2.9,0 -3.6,-2.9 -3.6,-6 0,-2.9 0.7,-5.6 3.2,-5.6 2.8,0 3.4,2.8 3.4,6.1 0,2.8 -0.5,5.5 -3,5.5 z M 139,38.9 138.9,34 v -6.4 c 0,-0.9 -0.4,-1.2 -1.2,-1.2 -1.3,0 -3.4,0.3 -4.8,0.6 v 1.2 h 2.4 v 5.7 l -0.1,4.7 c 0,0.6 -0.2,1 -0.7,1.2 l -1.6,0.5 c 0,0.3 0.1,0.5 0.1,0.8 h 8.2 c 0.1,-0.3 0.2,-0.7 0.2,-0.9 l -2,-0.5 c -0.2,0.1 -0.4,-0.1 -0.4,-0.8 z m 31.1,-5.5 c 0,-3.8 -1.8,-6.9 -6,-6.9 -4.4,0 -7.4,3.8 -7.4,8 0,4.3 2.6,7 7.4,7 2.5,0 4.6,-1 5.7,-2.4 l -0.4,-0.9 c -1.6,0.4 -3,0.5 -4,0.5 -2.8,0 -4.7,-1.2 -5,-4.8 h 9.6 v -0.5 z m -9.6,-0.8 c 0.1,-3.1 1.4,-4.6 3,-4.6 2,0 2.7,1.9 2.7,4.6 z m -23.4,-9.2 c 1.2,0 2.1,-1 2.1,-2.1 0,-1.2 -1,-2.1 -2.1,-2.1 -1.2,0 -2.1,1 -2.1,2.1 0,1.1 1,2.1 2.1,2.1 z m 9.4,6.3 c 0,-1 0.8,-1.7 2.2,-1.7 2.6,0 3.2,1.4 3.5,3 l 0.9,0.1 0.4,-3.5 c -1.6,-0.8 -2.9,-1.1 -4.6,-1.1 -3,0 -5.6,1.8 -5.6,4.5 0,4.9 7.5,4.6 7.5,7.1 0,1.2 -1,1.9 -2.5,1.9 -2.1,0 -3.4,-1.4 -3.7,-3.5 h -1 l -0.2,3.9 c 1.6,0.7 3.1,1.1 5,1.1 2.7,0 6,-1.3 6,-4.8 0,-4.5 -7.9,-4.2 -7.9,-7 z M 79.1,39.3 78.9,34 v -3.4 c 0,-3.6 -3,-4.1 -5.2,-4.1 -2.3,0 -4.6,1.2 -5.6,2 l 0.4,1 c 1.4,-0.4 2.7,-0.6 3.6,-0.6 2.2,0 3.3,0.7 3.3,2.5 v 1.7 l -2.3,0.3 c -2.9,0.3 -6,1.2 -6,4.7 0,1.9 1.4,3.4 3.6,3.4 2.3,0 3.8,-1.3 4.8,-2.5 0.1,1.5 0.6,2.5 2.5,2.5 1,0 2.6,-0.7 3.5,-1.5 l -0.1,-0.7 z m -3.8,-1.1 c -0.8,0.4 -1.8,0.7 -2.9,0.7 -1.1,0 -1.8,-0.7 -1.8,-1.9 0,-1.4 1.4,-2.2 3,-2.5 l 1.6,-0.3 v 4 z"
     />
</svg>